<mxfile host="app.diagrams.net" modified="2023-04-13T11:57:01.160Z" agent="Mozilla/5.0 (Windows NT 10.0; Win64; x64) AppleWebKit/537.36 (KHTML, like Gecko) Chrome/111.0.0.0 Safari/537.36" etag="j0cVIgu6yUdJFUeArNeT" version="21.1.5" type="device">
  <diagram id="R2lEEEUBdFMjLlhIrx00" name="Page-1">
    <mxGraphModel dx="2868" dy="1592" grid="1" gridSize="10" guides="1" tooltips="1" connect="1" arrows="1" fold="1" page="1" pageScale="1" pageWidth="827" pageHeight="1169" math="0" shadow="0" extFonts="Permanent Marker^https://fonts.googleapis.com/css?family=Permanent+Marker">
      <root>
        <mxCell id="0" />
        <mxCell id="1" parent="0" />
        <mxCell id="qiBpKeUEI1iq6KnrLjdE-1" value="DataRealizacji" style="ellipse;whiteSpace=wrap;html=1;align=center;" parent="1" vertex="1">
          <mxGeometry x="590" y="500" width="100" height="40" as="geometry" />
        </mxCell>
        <mxCell id="qiBpKeUEI1iq6KnrLjdE-2" value="Liczba_gosci" style="ellipse;whiteSpace=wrap;html=1;align=center;" parent="1" vertex="1">
          <mxGeometry x="680" y="460" width="100" height="40" as="geometry" />
        </mxCell>
        <mxCell id="qiBpKeUEI1iq6KnrLjdE-3" value="Data_Rezerwacji" style="ellipse;whiteSpace=wrap;html=1;align=center;" parent="1" vertex="1">
          <mxGeometry x="880" y="500" width="100" height="40" as="geometry" />
        </mxCell>
        <mxCell id="qiBpKeUEI1iq6KnrLjdE-4" value="IDRezerwacji" style="ellipse;whiteSpace=wrap;html=1;align=center;fontStyle=4;" parent="1" vertex="1">
          <mxGeometry x="600" y="640" width="100" height="40" as="geometry" />
        </mxCell>
        <mxCell id="qiBpKeUEI1iq6KnrLjdE-5" value="IDKlienta" style="ellipse;whiteSpace=wrap;html=1;align=center;dashed=0;" parent="1" vertex="1">
          <mxGeometry x="650" y="700" width="100" height="40" as="geometry" />
        </mxCell>
        <mxCell id="qiBpKeUEI1iq6KnrLjdE-6" value="IDHotelu" style="ellipse;whiteSpace=wrap;html=1;align=center;dashed=0;" parent="1" vertex="1">
          <mxGeometry x="870" y="680" width="100" height="40" as="geometry" />
        </mxCell>
        <mxCell id="qiBpKeUEI1iq6KnrLjdE-7" value="Rezerwacja&lt;br&gt;" style="whiteSpace=wrap;html=1;align=center;fillColor=#f8cecc;strokeColor=#b85450;" parent="1" vertex="1">
          <mxGeometry x="740" y="570" width="100" height="40" as="geometry" />
        </mxCell>
        <mxCell id="qiBpKeUEI1iq6KnrLjdE-8" value="" style="endArrow=none;html=1;rounded=0;exitX=0.5;exitY=0;exitDx=0;exitDy=0;entryX=0.5;entryY=1;entryDx=0;entryDy=0;" parent="1" source="qiBpKeUEI1iq6KnrLjdE-5" target="qiBpKeUEI1iq6KnrLjdE-7" edge="1">
          <mxGeometry width="50" height="50" relative="1" as="geometry">
            <mxPoint x="850" y="630" as="sourcePoint" />
            <mxPoint x="900" y="580" as="targetPoint" />
          </mxGeometry>
        </mxCell>
        <mxCell id="qiBpKeUEI1iq6KnrLjdE-9" value="" style="endArrow=none;html=1;rounded=0;exitX=0.5;exitY=0;exitDx=0;exitDy=0;" parent="1" source="qiBpKeUEI1iq6KnrLjdE-6" edge="1">
          <mxGeometry width="50" height="50" relative="1" as="geometry">
            <mxPoint x="799" y="667" as="sourcePoint" />
            <mxPoint x="790" y="610" as="targetPoint" />
          </mxGeometry>
        </mxCell>
        <mxCell id="qiBpKeUEI1iq6KnrLjdE-10" value="" style="endArrow=none;html=1;rounded=0;exitX=0.5;exitY=0;exitDx=0;exitDy=0;entryX=0.5;entryY=1;entryDx=0;entryDy=0;" parent="1" source="qiBpKeUEI1iq6KnrLjdE-4" target="qiBpKeUEI1iq6KnrLjdE-7" edge="1">
          <mxGeometry width="50" height="50" relative="1" as="geometry">
            <mxPoint x="910" y="640" as="sourcePoint" />
            <mxPoint x="800" y="620" as="targetPoint" />
          </mxGeometry>
        </mxCell>
        <mxCell id="qiBpKeUEI1iq6KnrLjdE-11" value="" style="endArrow=none;html=1;rounded=0;exitX=0.5;exitY=1;exitDx=0;exitDy=0;entryX=0.5;entryY=0;entryDx=0;entryDy=0;" parent="1" source="qiBpKeUEI1iq6KnrLjdE-1" target="qiBpKeUEI1iq6KnrLjdE-7" edge="1">
          <mxGeometry width="50" height="50" relative="1" as="geometry">
            <mxPoint x="660" y="630" as="sourcePoint" />
            <mxPoint x="800" y="620" as="targetPoint" />
          </mxGeometry>
        </mxCell>
        <mxCell id="qiBpKeUEI1iq6KnrLjdE-12" value="" style="endArrow=none;html=1;rounded=0;exitX=0.5;exitY=1;exitDx=0;exitDy=0;" parent="1" source="qiBpKeUEI1iq6KnrLjdE-2" edge="1">
          <mxGeometry width="50" height="50" relative="1" as="geometry">
            <mxPoint x="720" y="550" as="sourcePoint" />
            <mxPoint x="790" y="570" as="targetPoint" />
          </mxGeometry>
        </mxCell>
        <mxCell id="qiBpKeUEI1iq6KnrLjdE-13" value="" style="endArrow=none;html=1;rounded=0;exitX=0.5;exitY=1;exitDx=0;exitDy=0;entryX=0.5;entryY=0;entryDx=0;entryDy=0;" parent="1" source="qiBpKeUEI1iq6KnrLjdE-3" target="qiBpKeUEI1iq6KnrLjdE-7" edge="1">
          <mxGeometry width="50" height="50" relative="1" as="geometry">
            <mxPoint x="790" y="530" as="sourcePoint" />
            <mxPoint x="800" y="580" as="targetPoint" />
          </mxGeometry>
        </mxCell>
        <mxCell id="qiBpKeUEI1iq6KnrLjdE-16" value="Typ_pokoju" style="ellipse;whiteSpace=wrap;html=1;align=center;" parent="1" vertex="1">
          <mxGeometry x="650" y="140" width="100" height="40" as="geometry" />
        </mxCell>
        <mxCell id="qiBpKeUEI1iq6KnrLjdE-20" value="Hotel" style="whiteSpace=wrap;html=1;align=center;fillColor=#f8cecc;strokeColor=#b85450;" parent="1" vertex="1">
          <mxGeometry x="1230" y="250" width="100" height="40" as="geometry" />
        </mxCell>
        <mxCell id="qiBpKeUEI1iq6KnrLjdE-21" value="IDHotelu" style="ellipse;whiteSpace=wrap;html=1;align=center;fontStyle=4;" parent="1" vertex="1">
          <mxGeometry x="1420" y="250" width="100" height="40" as="geometry" />
        </mxCell>
        <mxCell id="qiBpKeUEI1iq6KnrLjdE-23" value="Wojewodztwo" style="ellipse;whiteSpace=wrap;html=1;align=center;" parent="1" vertex="1">
          <mxGeometry x="1350" y="320" width="100" height="40" as="geometry" />
        </mxCell>
        <mxCell id="qiBpKeUEI1iq6KnrLjdE-24" value="Kod_pocztowy" style="ellipse;whiteSpace=wrap;html=1;align=center;" parent="1" vertex="1">
          <mxGeometry x="1160" y="160" width="100" height="40" as="geometry" />
        </mxCell>
        <mxCell id="qiBpKeUEI1iq6KnrLjdE-25" value="Miasto" style="ellipse;whiteSpace=wrap;html=1;align=center;" parent="1" vertex="1">
          <mxGeometry x="1340" y="160" width="100" height="40" as="geometry" />
        </mxCell>
        <mxCell id="qiBpKeUEI1iq6KnrLjdE-27" value="Telefon" style="ellipse;shape=doubleEllipse;margin=3;whiteSpace=wrap;html=1;align=center;" parent="1" vertex="1">
          <mxGeometry x="1160" y="320" width="100" height="40" as="geometry" />
        </mxCell>
        <mxCell id="qiBpKeUEI1iq6KnrLjdE-28" value="" style="endArrow=none;html=1;rounded=0;entryX=0;entryY=0.5;entryDx=0;entryDy=0;exitX=1;exitY=0.5;exitDx=0;exitDy=0;" parent="1" source="ZWRE1HSb3JupNr1yFYf9-2" edge="1">
          <mxGeometry width="50" height="50" relative="1" as="geometry">
            <mxPoint x="620" y="330" as="sourcePoint" />
            <mxPoint x="727" y="270" as="targetPoint" />
          </mxGeometry>
        </mxCell>
        <mxCell id="qiBpKeUEI1iq6KnrLjdE-29" value="" style="endArrow=none;html=1;rounded=0;exitX=0.5;exitY=0;exitDx=0;exitDy=0;entryX=0.5;entryY=1;entryDx=0;entryDy=0;" parent="1" edge="1">
          <mxGeometry relative="1" as="geometry">
            <mxPoint x="777" y="250" as="sourcePoint" />
            <mxPoint x="870" y="180" as="targetPoint" />
          </mxGeometry>
        </mxCell>
        <mxCell id="qiBpKeUEI1iq6KnrLjdE-30" value="" style="endArrow=none;html=1;rounded=0;entryX=0.5;entryY=1;entryDx=0;entryDy=0;" parent="1" target="qiBpKeUEI1iq6KnrLjdE-16" edge="1">
          <mxGeometry relative="1" as="geometry">
            <mxPoint x="780" y="250" as="sourcePoint" />
            <mxPoint x="870" y="190" as="targetPoint" />
          </mxGeometry>
        </mxCell>
        <mxCell id="qiBpKeUEI1iq6KnrLjdE-32" value="" style="endArrow=none;html=1;rounded=0;exitX=0.5;exitY=0;exitDx=0;exitDy=0;entryX=0.5;entryY=1;entryDx=0;entryDy=0;" parent="1" source="qiBpKeUEI1iq6KnrLjdE-27" target="qiBpKeUEI1iq6KnrLjdE-20" edge="1">
          <mxGeometry relative="1" as="geometry">
            <mxPoint x="807" y="280" as="sourcePoint" />
            <mxPoint x="890" y="210" as="targetPoint" />
          </mxGeometry>
        </mxCell>
        <mxCell id="qiBpKeUEI1iq6KnrLjdE-33" value="" style="endArrow=none;html=1;rounded=0;exitX=0.5;exitY=0;exitDx=0;exitDy=0;entryX=0.5;entryY=1;entryDx=0;entryDy=0;" parent="1" source="qiBpKeUEI1iq6KnrLjdE-23" target="qiBpKeUEI1iq6KnrLjdE-20" edge="1">
          <mxGeometry relative="1" as="geometry">
            <mxPoint x="1150" y="310" as="sourcePoint" />
            <mxPoint x="1240" y="280" as="targetPoint" />
          </mxGeometry>
        </mxCell>
        <mxCell id="qiBpKeUEI1iq6KnrLjdE-34" value="" style="endArrow=none;html=1;rounded=0;exitX=0.5;exitY=1;exitDx=0;exitDy=0;entryX=0.5;entryY=0;entryDx=0;entryDy=0;" parent="1" source="qiBpKeUEI1iq6KnrLjdE-25" target="qiBpKeUEI1iq6KnrLjdE-20" edge="1">
          <mxGeometry relative="1" as="geometry">
            <mxPoint x="1340" y="330" as="sourcePoint" />
            <mxPoint x="1290" y="280" as="targetPoint" />
          </mxGeometry>
        </mxCell>
        <mxCell id="qiBpKeUEI1iq6KnrLjdE-35" value="" style="endArrow=none;html=1;rounded=0;exitX=0;exitY=0.5;exitDx=0;exitDy=0;entryX=1;entryY=0.5;entryDx=0;entryDy=0;" parent="1" source="qiBpKeUEI1iq6KnrLjdE-21" target="qiBpKeUEI1iq6KnrLjdE-20" edge="1">
          <mxGeometry relative="1" as="geometry">
            <mxPoint x="1400" y="190" as="sourcePoint" />
            <mxPoint x="1340" y="240" as="targetPoint" />
          </mxGeometry>
        </mxCell>
        <mxCell id="qiBpKeUEI1iq6KnrLjdE-36" value="" style="endArrow=none;html=1;rounded=0;exitX=0.5;exitY=1;exitDx=0;exitDy=0;entryX=0.5;entryY=0;entryDx=0;entryDy=0;" parent="1" source="qiBpKeUEI1iq6KnrLjdE-24" target="qiBpKeUEI1iq6KnrLjdE-20" edge="1">
          <mxGeometry relative="1" as="geometry">
            <mxPoint x="1420" y="260" as="sourcePoint" />
            <mxPoint x="1340" y="260" as="targetPoint" />
          </mxGeometry>
        </mxCell>
        <mxCell id="qiBpKeUEI1iq6KnrLjdE-37" value="Platnosc" style="whiteSpace=wrap;html=1;align=center;fillColor=#f8cecc;strokeColor=#b85450;" parent="1" vertex="1">
          <mxGeometry x="1260" y="570" width="100" height="40" as="geometry" />
        </mxCell>
        <mxCell id="qiBpKeUEI1iq6KnrLjdE-38" value="IDRezerwacji" style="ellipse;whiteSpace=wrap;html=1;align=center;" parent="1" vertex="1">
          <mxGeometry x="1410" y="570" width="100" height="40" as="geometry" />
        </mxCell>
        <mxCell id="qiBpKeUEI1iq6KnrLjdE-39" value="Data_platnosci" style="ellipse;whiteSpace=wrap;html=1;align=center;" parent="1" vertex="1">
          <mxGeometry x="1330" y="660" width="100" height="40" as="geometry" />
        </mxCell>
        <mxCell id="qiBpKeUEI1iq6KnrLjdE-40" value="Numer_karty&lt;br&gt;_kredytowej" style="ellipse;whiteSpace=wrap;html=1;align=center;" parent="1" vertex="1">
          <mxGeometry x="1370" y="470" width="100" height="40" as="geometry" />
        </mxCell>
        <mxCell id="qiBpKeUEI1iq6KnrLjdE-41" value="IDPlatnosci" style="ellipse;whiteSpace=wrap;html=1;align=center;fontStyle=4;" parent="1" vertex="1">
          <mxGeometry x="1200" y="660" width="100" height="40" as="geometry" />
        </mxCell>
        <mxCell id="qiBpKeUEI1iq6KnrLjdE-42" value="Dodatkowe_uslugi" style="whiteSpace=wrap;html=1;align=center;fillColor=#f8cecc;strokeColor=#b85450;" parent="1" vertex="1">
          <mxGeometry x="220" y="570" width="100" height="40" as="geometry" />
        </mxCell>
        <mxCell id="qiBpKeUEI1iq6KnrLjdE-43" value="IDUslugi&lt;br&gt;" style="ellipse;whiteSpace=wrap;html=1;align=center;fontStyle=4;" parent="1" vertex="1">
          <mxGeometry x="220" y="470" width="100" height="40" as="geometry" />
        </mxCell>
        <mxCell id="qiBpKeUEI1iq6KnrLjdE-47" value="Koszt" style="ellipse;whiteSpace=wrap;html=1;align=center;" parent="1" vertex="1">
          <mxGeometry x="220" y="670" width="100" height="40" as="geometry" />
        </mxCell>
        <mxCell id="qiBpKeUEI1iq6KnrLjdE-48" value="Nazwa" style="ellipse;whiteSpace=wrap;html=1;align=center;" parent="1" vertex="1">
          <mxGeometry x="380" y="620" width="100" height="40" as="geometry" />
        </mxCell>
        <mxCell id="qiBpKeUEI1iq6KnrLjdE-49" value="IDRezerwacji" style="ellipse;whiteSpace=wrap;html=1;align=center;" parent="1" vertex="1">
          <mxGeometry x="380" y="510" width="100" height="40" as="geometry" />
        </mxCell>
        <mxCell id="qiBpKeUEI1iq6KnrLjdE-50" value="" style="endArrow=none;html=1;rounded=0;entryX=0;entryY=0.5;entryDx=0;entryDy=0;exitX=0.5;exitY=0;exitDx=0;exitDy=0;" parent="1" source="qiBpKeUEI1iq6KnrLjdE-42" target="qiBpKeUEI1iq6KnrLjdE-49" edge="1">
          <mxGeometry width="50" height="50" relative="1" as="geometry">
            <mxPoint x="850" y="500" as="sourcePoint" />
            <mxPoint x="900" y="450" as="targetPoint" />
          </mxGeometry>
        </mxCell>
        <mxCell id="qiBpKeUEI1iq6KnrLjdE-52" value="" style="endArrow=none;html=1;rounded=0;entryX=0.5;entryY=1;entryDx=0;entryDy=0;exitX=0.5;exitY=0;exitDx=0;exitDy=0;" parent="1" source="qiBpKeUEI1iq6KnrLjdE-42" target="qiBpKeUEI1iq6KnrLjdE-43" edge="1">
          <mxGeometry width="50" height="50" relative="1" as="geometry">
            <mxPoint x="850" y="500" as="sourcePoint" />
            <mxPoint x="900" y="450" as="targetPoint" />
          </mxGeometry>
        </mxCell>
        <mxCell id="qiBpKeUEI1iq6KnrLjdE-53" value="" style="endArrow=none;html=1;rounded=0;entryX=0;entryY=0.5;entryDx=0;entryDy=0;exitX=0.5;exitY=1;exitDx=0;exitDy=0;" parent="1" source="qiBpKeUEI1iq6KnrLjdE-42" target="qiBpKeUEI1iq6KnrLjdE-48" edge="1">
          <mxGeometry width="50" height="50" relative="1" as="geometry">
            <mxPoint x="280" y="570" as="sourcePoint" />
            <mxPoint x="390" y="540" as="targetPoint" />
          </mxGeometry>
        </mxCell>
        <mxCell id="qiBpKeUEI1iq6KnrLjdE-55" value="" style="endArrow=none;html=1;rounded=0;entryX=0.5;entryY=0;entryDx=0;entryDy=0;exitX=0.5;exitY=1;exitDx=0;exitDy=0;" parent="1" source="qiBpKeUEI1iq6KnrLjdE-42" target="qiBpKeUEI1iq6KnrLjdE-47" edge="1">
          <mxGeometry width="50" height="50" relative="1" as="geometry">
            <mxPoint x="280" y="610" as="sourcePoint" />
            <mxPoint x="390" y="620" as="targetPoint" />
          </mxGeometry>
        </mxCell>
        <mxCell id="qiBpKeUEI1iq6KnrLjdE-56" value="Klient" style="whiteSpace=wrap;html=1;align=center;fillColor=#f8cecc;strokeColor=#b85450;" parent="1" vertex="1">
          <mxGeometry x="720" y="950" width="100" height="40" as="geometry" />
        </mxCell>
        <mxCell id="qiBpKeUEI1iq6KnrLjdE-57" value="IDKlienta" style="ellipse;whiteSpace=wrap;html=1;align=center;fontStyle=4;" parent="1" vertex="1">
          <mxGeometry x="540" y="950" width="100" height="40" as="geometry" />
        </mxCell>
        <mxCell id="qiBpKeUEI1iq6KnrLjdE-58" value="Nazwisko" style="ellipse;whiteSpace=wrap;html=1;align=center;" parent="1" vertex="1">
          <mxGeometry x="570" y="1070" width="100" height="40" as="geometry" />
        </mxCell>
        <mxCell id="qiBpKeUEI1iq6KnrLjdE-59" value="Imie" style="ellipse;whiteSpace=wrap;html=1;align=center;" parent="1" vertex="1">
          <mxGeometry x="720" y="1090" width="100" height="40" as="geometry" />
        </mxCell>
        <mxCell id="qiBpKeUEI1iq6KnrLjdE-60" value="Ulica" style="ellipse;whiteSpace=wrap;html=1;align=center;" parent="1" vertex="1">
          <mxGeometry x="890" y="1070" width="100" height="40" as="geometry" />
        </mxCell>
        <mxCell id="qiBpKeUEI1iq6KnrLjdE-61" value="Numer_domu" style="ellipse;whiteSpace=wrap;html=1;align=center;" parent="1" vertex="1">
          <mxGeometry x="900" y="950" width="100" height="40" as="geometry" />
        </mxCell>
        <mxCell id="qiBpKeUEI1iq6KnrLjdE-62" value="Miejscowosc" style="ellipse;whiteSpace=wrap;html=1;align=center;" parent="1" vertex="1">
          <mxGeometry x="880" y="850" width="100" height="40" as="geometry" />
        </mxCell>
        <mxCell id="qiBpKeUEI1iq6KnrLjdE-63" value="Kod_pocztowy" style="ellipse;whiteSpace=wrap;html=1;align=center;" parent="1" vertex="1">
          <mxGeometry x="650" y="810" width="100" height="40" as="geometry" />
        </mxCell>
        <mxCell id="qiBpKeUEI1iq6KnrLjdE-64" value="Telefon" style="ellipse;whiteSpace=wrap;html=1;align=center;" parent="1" vertex="1">
          <mxGeometry x="560" y="850" width="100" height="40" as="geometry" />
        </mxCell>
        <mxCell id="qiBpKeUEI1iq6KnrLjdE-65" value="" style="endArrow=none;html=1;rounded=0;exitX=1;exitY=0.5;exitDx=0;exitDy=0;entryX=0;entryY=0.5;entryDx=0;entryDy=0;" parent="1" source="qiBpKeUEI1iq6KnrLjdE-57" target="qiBpKeUEI1iq6KnrLjdE-56" edge="1">
          <mxGeometry width="50" height="50" relative="1" as="geometry">
            <mxPoint x="850" y="900" as="sourcePoint" />
            <mxPoint x="900" y="850" as="targetPoint" />
          </mxGeometry>
        </mxCell>
        <mxCell id="qiBpKeUEI1iq6KnrLjdE-66" value="" style="endArrow=none;html=1;rounded=0;exitX=0.5;exitY=1;exitDx=0;exitDy=0;entryX=0.5;entryY=0;entryDx=0;entryDy=0;" parent="1" source="qiBpKeUEI1iq6KnrLjdE-64" target="qiBpKeUEI1iq6KnrLjdE-56" edge="1">
          <mxGeometry width="50" height="50" relative="1" as="geometry">
            <mxPoint x="650" y="980" as="sourcePoint" />
            <mxPoint x="730" y="980" as="targetPoint" />
          </mxGeometry>
        </mxCell>
        <mxCell id="qiBpKeUEI1iq6KnrLjdE-67" value="" style="endArrow=none;html=1;rounded=0;exitX=0.5;exitY=1;exitDx=0;exitDy=0;entryX=0.5;entryY=0;entryDx=0;entryDy=0;" parent="1" source="qiBpKeUEI1iq6KnrLjdE-63" target="qiBpKeUEI1iq6KnrLjdE-56" edge="1">
          <mxGeometry width="50" height="50" relative="1" as="geometry">
            <mxPoint x="670" y="890" as="sourcePoint" />
            <mxPoint x="780" y="960" as="targetPoint" />
          </mxGeometry>
        </mxCell>
        <mxCell id="qiBpKeUEI1iq6KnrLjdE-68" value="" style="endArrow=none;html=1;rounded=0;exitX=0.5;exitY=1;exitDx=0;exitDy=0;" parent="1" source="qiBpKeUEI1iq6KnrLjdE-62" edge="1">
          <mxGeometry width="50" height="50" relative="1" as="geometry">
            <mxPoint x="820" y="880" as="sourcePoint" />
            <mxPoint x="770" y="950" as="targetPoint" />
          </mxGeometry>
        </mxCell>
        <mxCell id="qiBpKeUEI1iq6KnrLjdE-69" value="" style="endArrow=none;html=1;rounded=0;exitX=0.5;exitY=0;exitDx=0;exitDy=0;entryX=0.5;entryY=1;entryDx=0;entryDy=0;" parent="1" source="qiBpKeUEI1iq6KnrLjdE-58" target="qiBpKeUEI1iq6KnrLjdE-56" edge="1">
          <mxGeometry width="50" height="50" relative="1" as="geometry">
            <mxPoint x="620" y="900" as="sourcePoint" />
            <mxPoint x="780" y="960" as="targetPoint" />
          </mxGeometry>
        </mxCell>
        <mxCell id="qiBpKeUEI1iq6KnrLjdE-70" value="" style="endArrow=none;html=1;rounded=0;exitX=0.5;exitY=0;exitDx=0;exitDy=0;entryX=0.5;entryY=1;entryDx=0;entryDy=0;" parent="1" source="qiBpKeUEI1iq6KnrLjdE-59" target="qiBpKeUEI1iq6KnrLjdE-56" edge="1">
          <mxGeometry width="50" height="50" relative="1" as="geometry">
            <mxPoint x="630" y="1080" as="sourcePoint" />
            <mxPoint x="780" y="1000" as="targetPoint" />
          </mxGeometry>
        </mxCell>
        <mxCell id="qiBpKeUEI1iq6KnrLjdE-71" value="" style="endArrow=none;html=1;rounded=0;exitX=0.5;exitY=0;exitDx=0;exitDy=0;entryX=0.5;entryY=1;entryDx=0;entryDy=0;" parent="1" source="qiBpKeUEI1iq6KnrLjdE-60" target="qiBpKeUEI1iq6KnrLjdE-56" edge="1">
          <mxGeometry width="50" height="50" relative="1" as="geometry">
            <mxPoint x="780" y="1100" as="sourcePoint" />
            <mxPoint x="780" y="1000" as="targetPoint" />
          </mxGeometry>
        </mxCell>
        <mxCell id="qiBpKeUEI1iq6KnrLjdE-72" value="" style="endArrow=none;html=1;rounded=0;exitX=0;exitY=0.5;exitDx=0;exitDy=0;entryX=1;entryY=0.5;entryDx=0;entryDy=0;" parent="1" source="qiBpKeUEI1iq6KnrLjdE-61" target="qiBpKeUEI1iq6KnrLjdE-56" edge="1">
          <mxGeometry width="50" height="50" relative="1" as="geometry">
            <mxPoint x="950" y="1080" as="sourcePoint" />
            <mxPoint x="780" y="1000" as="targetPoint" />
          </mxGeometry>
        </mxCell>
        <mxCell id="qiBpKeUEI1iq6KnrLjdE-73" value="" style="endArrow=none;html=1;rounded=0;exitX=0.5;exitY=1;exitDx=0;exitDy=0;entryX=0.5;entryY=0;entryDx=0;entryDy=0;" parent="1" source="qiBpKeUEI1iq6KnrLjdE-37" target="qiBpKeUEI1iq6KnrLjdE-41" edge="1">
          <mxGeometry width="50" height="50" relative="1" as="geometry">
            <mxPoint x="850" y="700" as="sourcePoint" />
            <mxPoint x="900" y="650" as="targetPoint" />
          </mxGeometry>
        </mxCell>
        <mxCell id="qiBpKeUEI1iq6KnrLjdE-74" value="" style="endArrow=none;html=1;rounded=0;exitX=0.5;exitY=0;exitDx=0;exitDy=0;entryX=0.5;entryY=1;entryDx=0;entryDy=0;" parent="1" source="qiBpKeUEI1iq6KnrLjdE-37" target="qiBpKeUEI1iq6KnrLjdE-40" edge="1">
          <mxGeometry width="50" height="50" relative="1" as="geometry">
            <mxPoint x="1270" y="600" as="sourcePoint" />
            <mxPoint x="1230" y="600" as="targetPoint" />
          </mxGeometry>
        </mxCell>
        <mxCell id="qiBpKeUEI1iq6KnrLjdE-75" value="" style="endArrow=none;html=1;rounded=0;exitX=1;exitY=0.5;exitDx=0;exitDy=0;" parent="1" source="qiBpKeUEI1iq6KnrLjdE-37" target="qiBpKeUEI1iq6KnrLjdE-38" edge="1">
          <mxGeometry width="50" height="50" relative="1" as="geometry">
            <mxPoint x="1320" y="580" as="sourcePoint" />
            <mxPoint x="1320" y="530" as="targetPoint" />
          </mxGeometry>
        </mxCell>
        <mxCell id="qiBpKeUEI1iq6KnrLjdE-76" value="" style="endArrow=none;html=1;rounded=0;exitX=0.5;exitY=1;exitDx=0;exitDy=0;entryX=0.5;entryY=0;entryDx=0;entryDy=0;" parent="1" source="qiBpKeUEI1iq6KnrLjdE-37" target="qiBpKeUEI1iq6KnrLjdE-39" edge="1">
          <mxGeometry width="50" height="50" relative="1" as="geometry">
            <mxPoint x="1370" y="600" as="sourcePoint" />
            <mxPoint x="1420" y="600" as="targetPoint" />
          </mxGeometry>
        </mxCell>
        <mxCell id="qiBpKeUEI1iq6KnrLjdE-77" value="Wymaga" style="shape=rhombus;perimeter=rhombusPerimeter;whiteSpace=wrap;html=1;align=center;" parent="1" vertex="1">
          <mxGeometry x="1000" y="560" width="120" height="60" as="geometry" />
        </mxCell>
        <mxCell id="qiBpKeUEI1iq6KnrLjdE-78" value="" style="endArrow=classic;html=1;rounded=0;entryX=1;entryY=0.5;entryDx=0;entryDy=0;exitX=0;exitY=0.5;exitDx=0;exitDy=0;" parent="1" source="qiBpKeUEI1iq6KnrLjdE-77" target="qiBpKeUEI1iq6KnrLjdE-7" edge="1">
          <mxGeometry width="50" height="50" relative="1" as="geometry">
            <mxPoint x="850" y="600" as="sourcePoint" />
            <mxPoint x="900" y="550" as="targetPoint" />
          </mxGeometry>
        </mxCell>
        <mxCell id="qiBpKeUEI1iq6KnrLjdE-79" value="" style="endArrow=none;html=1;rounded=0;entryX=0;entryY=0.5;entryDx=0;entryDy=0;exitX=1;exitY=0.5;exitDx=0;exitDy=0;" parent="1" source="qiBpKeUEI1iq6KnrLjdE-77" target="qiBpKeUEI1iq6KnrLjdE-37" edge="1">
          <mxGeometry width="50" height="50" relative="1" as="geometry">
            <mxPoint x="850" y="600" as="sourcePoint" />
            <mxPoint x="900" y="550" as="targetPoint" />
          </mxGeometry>
        </mxCell>
        <mxCell id="qiBpKeUEI1iq6KnrLjdE-81" value="Posiada/Jest w&amp;nbsp;" style="shape=rhombus;perimeter=rhombusPerimeter;whiteSpace=wrap;html=1;align=center;" parent="1" vertex="1">
          <mxGeometry x="780" y="360" width="120" height="60" as="geometry" />
        </mxCell>
        <mxCell id="qiBpKeUEI1iq6KnrLjdE-82" value="" style="endArrow=none;html=1;rounded=0;entryX=0.5;entryY=1;entryDx=0;entryDy=0;" parent="1" target="qiBpKeUEI1iq6KnrLjdE-81" edge="1">
          <mxGeometry relative="1" as="geometry">
            <mxPoint x="790" y="570" as="sourcePoint" />
            <mxPoint x="950" y="570" as="targetPoint" />
          </mxGeometry>
        </mxCell>
        <mxCell id="qiBpKeUEI1iq6KnrLjdE-83" value="" style="endArrow=classic;html=1;rounded=0;exitX=0.5;exitY=0;exitDx=0;exitDy=0;" parent="1" source="qiBpKeUEI1iq6KnrLjdE-81" edge="1">
          <mxGeometry width="50" height="50" relative="1" as="geometry">
            <mxPoint x="850" y="600" as="sourcePoint" />
            <mxPoint x="806.5555555555557" y="290" as="targetPoint" />
          </mxGeometry>
        </mxCell>
        <mxCell id="qiBpKeUEI1iq6KnrLjdE-84" value="" style="endArrow=classic;html=1;rounded=0;entryX=0.5;entryY=0;entryDx=0;entryDy=0;" parent="1" target="qiBpKeUEI1iq6KnrLjdE-56" edge="1">
          <mxGeometry width="50" height="50" relative="1" as="geometry">
            <mxPoint x="850" y="800" as="sourcePoint" />
            <mxPoint x="900" y="750" as="targetPoint" />
          </mxGeometry>
        </mxCell>
        <mxCell id="qiBpKeUEI1iq6KnrLjdE-85" value="Składa" style="shape=rhombus;perimeter=rhombusPerimeter;whiteSpace=wrap;html=1;align=center;" parent="1" vertex="1">
          <mxGeometry x="790" y="740" width="120" height="60" as="geometry" />
        </mxCell>
        <mxCell id="qiBpKeUEI1iq6KnrLjdE-86" value="" style="endArrow=none;html=1;rounded=0;exitX=0.5;exitY=0;exitDx=0;exitDy=0;" parent="1" source="qiBpKeUEI1iq6KnrLjdE-85" edge="1">
          <mxGeometry width="50" height="50" relative="1" as="geometry">
            <mxPoint x="850" y="700" as="sourcePoint" />
            <mxPoint x="790" y="610" as="targetPoint" />
          </mxGeometry>
        </mxCell>
        <mxCell id="qiBpKeUEI1iq6KnrLjdE-87" value="Posiada" style="shape=rhombus;perimeter=rhombusPerimeter;whiteSpace=wrap;html=1;align=center;" parent="1" vertex="1">
          <mxGeometry x="480" y="560" width="120" height="60" as="geometry" />
        </mxCell>
        <mxCell id="qiBpKeUEI1iq6KnrLjdE-89" value="" style="endArrow=none;html=1;rounded=0;exitX=1;exitY=0.5;exitDx=0;exitDy=0;entryX=0;entryY=0.5;entryDx=0;entryDy=0;" parent="1" source="qiBpKeUEI1iq6KnrLjdE-42" target="qiBpKeUEI1iq6KnrLjdE-87" edge="1">
          <mxGeometry width="50" height="50" relative="1" as="geometry">
            <mxPoint x="850" y="700" as="sourcePoint" />
            <mxPoint x="900" y="650" as="targetPoint" />
          </mxGeometry>
        </mxCell>
        <mxCell id="qiBpKeUEI1iq6KnrLjdE-90" value="" style="endArrow=classic;html=1;rounded=0;entryX=0;entryY=0.5;entryDx=0;entryDy=0;exitX=1;exitY=0.5;exitDx=0;exitDy=0;" parent="1" source="qiBpKeUEI1iq6KnrLjdE-87" target="qiBpKeUEI1iq6KnrLjdE-7" edge="1">
          <mxGeometry width="50" height="50" relative="1" as="geometry">
            <mxPoint x="850" y="700" as="sourcePoint" />
            <mxPoint x="900" y="650" as="targetPoint" />
          </mxGeometry>
        </mxCell>
        <mxCell id="qiBpKeUEI1iq6KnrLjdE-92" value="" style="endArrow=classic;html=1;rounded=0;entryX=0;entryY=0.5;entryDx=0;entryDy=0;exitX=1;exitY=0.5;exitDx=0;exitDy=0;" parent="1" target="qiBpKeUEI1iq6KnrLjdE-20" edge="1">
          <mxGeometry width="50" height="50" relative="1" as="geometry">
            <mxPoint x="1100" y="270" as="sourcePoint" />
            <mxPoint x="900" y="250" as="targetPoint" />
          </mxGeometry>
        </mxCell>
        <mxCell id="qiBpKeUEI1iq6KnrLjdE-93" value="" style="endArrow=none;html=1;rounded=0;entryX=0;entryY=0.5;entryDx=0;entryDy=0;exitX=1;exitY=0.5;exitDx=0;exitDy=0;" parent="1" edge="1">
          <mxGeometry width="50" height="50" relative="1" as="geometry">
            <mxPoint x="827" y="270" as="sourcePoint" />
            <mxPoint x="980" y="270" as="targetPoint" />
          </mxGeometry>
        </mxCell>
        <mxCell id="ZWRE1HSb3JupNr1yFYf9-1" value="&lt;span style=&quot;border-bottom: 1px dotted&quot;&gt;Numer_pokoju&lt;/span&gt;" style="ellipse;whiteSpace=wrap;html=1;align=center;" parent="1" vertex="1">
          <mxGeometry x="820" y="140" width="100" height="40" as="geometry" />
        </mxCell>
        <mxCell id="ZWRE1HSb3JupNr1yFYf9-2" value="IDHotelu" style="ellipse;whiteSpace=wrap;html=1;align=center;fontStyle=4;" parent="1" vertex="1">
          <mxGeometry x="560" y="250" width="100" height="40" as="geometry" />
        </mxCell>
        <mxCell id="ZWRE1HSb3JupNr1yFYf9-3" value="Pokoj" style="shape=ext;margin=3;double=1;whiteSpace=wrap;html=1;align=center;fillColor=#f8cecc;strokeColor=#b85450;" parent="1" vertex="1">
          <mxGeometry x="727" y="250" width="100" height="40" as="geometry" />
        </mxCell>
        <mxCell id="ZWRE1HSb3JupNr1yFYf9-4" value="ma" style="shape=rhombus;double=1;perimeter=rhombusPerimeter;whiteSpace=wrap;html=1;align=center;" parent="1" vertex="1">
          <mxGeometry x="980" y="240" width="130" height="60" as="geometry" />
        </mxCell>
        <mxCell id="ZWRE1HSb3JupNr1yFYf9-6" value="Numer_pokoju" style="ellipse;whiteSpace=wrap;html=1;align=center;" parent="1" vertex="1">
          <mxGeometry x="920" y="630" width="100" height="40" as="geometry" />
        </mxCell>
        <mxCell id="ZWRE1HSb3JupNr1yFYf9-7" value="" style="endArrow=none;html=1;rounded=0;entryX=0;entryY=0.5;entryDx=0;entryDy=0;" parent="1" target="ZWRE1HSb3JupNr1yFYf9-6" edge="1">
          <mxGeometry width="50" height="50" relative="1" as="geometry">
            <mxPoint x="790" y="610" as="sourcePoint" />
            <mxPoint x="750" y="380" as="targetPoint" />
          </mxGeometry>
        </mxCell>
      </root>
    </mxGraphModel>
  </diagram>
</mxfile>
